<?xml version="1.0" standalone="no"?>
<!DOCTYPE svg PUBLIC "-//W3C//DTD SVG 20010904//EN"
 "http://www.w3.org/TR/2001/REC-SVG-20010904/DTD/svg10.dtd">
<svg version="1.0" xmlns="http://www.w3.org/2000/svg"
 width="500.000000pt" height="500.000000pt" viewBox="0 0 500.000000 500.000000"
 preserveAspectRatio="xMidYMid meet">
<metadata>
Created by potrace 1.11, written by Peter Selinger 2001-2013
</metadata>
<g transform="translate(0.000000,500.000000) scale(0.100000,-0.100000)"
fill="#000000" stroke="none">
<path d="M1507 4678 c-4 -13 -18 -90 -32 -173 -14 -82 -28 -157 -30 -165 -2
-8 -7 -33 -10 -55 -3 -23 -8 -52 -10 -65 -3 -14 -8 -41 -11 -60 -3 -19 -7 -42
-9 -50 -2 -8 -7 -35 -10 -60 -4 -25 -13 -78 -21 -119 -9 -40 -17 -87 -19 -105
-2 -17 -13 -80 -24 -141 -11 -60 -23 -123 -25 -140 -3 -16 -8 -41 -10 -55 -3
-14 -16 -90 -30 -170 -14 -80 -27 -154 -30 -165 -2 -11 -9 -54 -16 -95 -6 -41
-14 -86 -16 -100 -2 -14 -7 -47 -10 -75 -3 -27 -8 -53 -10 -56 -2 -4 -7 -62
-10 -130 -7 -128 6 -253 29 -282 10 -14 48 5 267 133 l255 149 1 58 c1 67 9
141 23 222 6 31 13 70 15 86 3 17 12 73 21 125 10 52 19 109 22 125 2 17 6 41
9 55 2 14 7 42 10 63 l7 37 291 0 291 0 17 38 c9 20 55 122 102 225 47 104 86
190 86 193 0 2 -158 4 -351 4 l-352 0 7 48 c3 26 8 58 11 72 13 65 35 183 35
186 0 2 176 4 391 4 l391 0 -6 48 c-3 26 -8 74 -11 107 -2 33 -7 92 -11 130
-3 39 -8 86 -9 105 -2 19 -4 43 -4 53 -1 16 -36 17 -600 17 l-599 0 -5 -22z"/>
<path d="M3081 4638 c-6 -35 -13 -79 -16 -98 -3 -19 -8 -46 -10 -60 -12 -57
-16 -78 -26 -140 -6 -36 -17 -96 -24 -135 -7 -38 -16 -88 -19 -110 -7 -43 -16
-98 -23 -130 -8 -39 -22 -121 -27 -155 -3 -19 -8 -46 -11 -60 -3 -14 -12 -68
-21 -120 -9 -52 -20 -115 -24 -140 -11 -62 -17 -91 -35 -195 -19 -111 -31
-180 -50 -287 -2 -13 -13 -75 -25 -138 -11 -63 -23 -127 -26 -142 l-6 -28 549
0 549 0 24 53 c29 66 86 190 110 242 10 22 34 75 54 118 l35 77 -345 0 c-326
0 -344 1 -344 18 0 16 9 68 25 152 3 14 17 93 31 175 27 157 31 174 39 215 2
14 7 41 10 60 6 38 52 301 59 337 3 11 8 43 12 70 5 26 9 50 9 53 1 3 5 25 9
50 5 25 10 54 12 65 3 11 7 36 10 55 3 19 14 82 25 140 10 58 19 108 19 113 0
4 -121 7 -269 7 l-269 0 -11 -62z"/>
<path d="M1151 2028 c-10 -23 -48 -111 -85 -195 -36 -84 -66 -155 -66 -157 0
-3 195 -6 433 -8 415 -3 434 -4 478 -24 52 -24 102 -83 117 -137 14 -51 9
-157 -12 -236 -60 -223 -221 -419 -424 -512 -65 -31 -187 -63 -201 -55 -5 3
-4 27 0 53 15 77 77 426 85 478 3 17 7 37 9 45 2 8 6 31 9 50 6 33 9 51 22
130 3 19 8 46 10 60 3 14 7 37 10 53 l6 27 -240 0 -240 0 -11 -62 c-6 -35 -13
-74 -15 -88 -5 -26 -23 -130 -80 -455 -20 -110 -38 -213 -41 -230 -3 -16 -8
-46 -11 -65 -3 -19 -8 -46 -10 -60 -3 -14 -7 -38 -11 -55 -3 -16 -7 -39 -9
-50 -2 -18 -6 -41 -18 -100 -2 -11 -7 -40 -11 -65 -3 -25 -9 -53 -12 -63 -5
-18 6 -19 264 -14 273 5 305 7 428 33 445 93 837 475 958 934 112 421 -19 707
-359 787 -56 13 -151 17 -511 20 l-443 5 -19 -44z"/>
<path d="M2746 1993 c14 -43 29 -87 34 -98 4 -11 36 -108 70 -215 34 -107 80
-248 102 -314 22 -65 40 -126 41 -135 0 -9 -70 -122 -158 -251 -87 -129 -228
-337 -312 -462 l-154 -228 265 0 265 0 170 278 c93 152 174 284 179 292 7 11
12 4 19 -30 6 -25 36 -142 68 -260 31 -118 58 -219 59 -225 1 -5 6 -20 10 -32
l7 -23 264 0 264 0 -25 78 c-14 42 -29 86 -34 97 -4 11 -45 135 -90 275 -45
140 -99 307 -119 370 l-37 114 55 81 c30 44 57 82 60 85 4 3 37 52 76 110 38
58 133 197 211 310 77 113 149 217 158 233 l18 27 -264 0 -264 0 -144 -242
c-79 -134 -149 -249 -155 -256 -10 -11 -23 22 -39 100 -2 7 -6 24 -9 38 -4 14
-20 84 -37 155 -17 72 -36 147 -41 168 l-10 37 -264 0 -264 0 25 -77z"/>
</g>
</svg>
